<?xml version="1.0" encoding="utf-8"?>
<!-- Generator: Adobe Illustrator 18.1.0, SVG Export Plug-In . SVG Version: 6.00 Build 0)  -->
<svg version="1.1" id="Layer_1" xmlns="http://www.w3.org/2000/svg" xmlns:xlink="http://www.w3.org/1999/xlink" x="0px" y="0px"
	 viewBox="0 0 32 32" enable-background="new 0 0 32 32" xml:space="preserve">
<g>
	<path fill="#FFFFFF" d="M15.942,8.364L4.49,19.816c0.961,0,1.921,0,2.882,0l5.561-5.561l5.595,5.595h8.899L15.942,8.364z
		 M14.374,12.814l1.568-1.568l6.566,6.566h-3.135L14.374,12.814z"/>
</g>
<path fill="#FFFFFF" d="M15.959,31.607c-8.615,0-15.624-7.009-15.624-15.624S7.344,0.36,15.959,0.36s15.624,7.009,15.624,15.624
	S24.574,31.607,15.959,31.607z M15.959,2.45c-7.462,0-13.533,6.071-13.533,13.533s6.071,13.533,13.533,13.533
	s13.533-6.071,13.533-13.533S23.421,2.45,15.959,2.45z"/>
</svg>
